<?xml version="1.0" encoding="UTF-8" standalone="no"?>
<!DOCTYPE svg PUBLIC "-//W3C//DTD SVG 1.1//EN"
 "http://www.w3.org/Graphics/SVG/1.1/DTD/svg11.dtd">
<!-- Generated by graphviz version 2.36.0 (20140111.2315)
 -->
<!-- Title: G Pages: 1 -->
<svg width="639pt" height="424pt"
 viewBox="0.00 0.00 639.20 424.35" xmlns="http://www.w3.org/2000/svg" xmlns:xlink="http://www.w3.org/1999/xlink">
<g id="graph0" class="graph" transform="scale(1 1) rotate(0) translate(21.6 402.749)">
<title>G</title>
<polygon fill="#111111" stroke="none" points="-21.6,21.6 -21.6,-402.749 617.6,-402.749 617.6,21.6 -21.6,21.6"/>
<!-- index.js -->
<g id="node1" class="node"><title>index.js</title>
<path fill="none" stroke="#c6c5fe" d="M56.3333,-204.5C56.3333,-204.5 7.66667,-204.5 7.66667,-204.5 3.83333,-204.5 0,-200.667 0,-196.833 0,-196.833 0,-189.167 0,-189.167 0,-185.333 3.83333,-181.5 7.66667,-181.5 7.66667,-181.5 56.3333,-181.5 56.3333,-181.5 60.1667,-181.5 64,-185.333 64,-189.167 64,-189.167 64,-196.833 64,-196.833 64,-200.667 60.1667,-204.5 56.3333,-204.5"/>
<text text-anchor="middle" x="32" y="-189.3" font-family="Arial" font-size="14.00" fill="#c6c5fe">index.js</text>
</g>
<!-- js/cropper.js -->
<g id="node2" class="node"><title>js/cropper.js</title>
<path fill="none" stroke="#c6c5fe" d="M184.333,-204.5C184.333,-204.5 107.667,-204.5 107.667,-204.5 103.833,-204.5 100,-200.667 100,-196.833 100,-196.833 100,-189.167 100,-189.167 100,-185.333 103.833,-181.5 107.667,-181.5 107.667,-181.5 184.333,-181.5 184.333,-181.5 188.167,-181.5 192,-185.333 192,-189.167 192,-189.167 192,-196.833 192,-196.833 192,-200.667 188.167,-204.5 184.333,-204.5"/>
<text text-anchor="middle" x="146" y="-189.3" font-family="Arial" font-size="14.00" fill="#c6c5fe">js/cropper.js</text>
</g>
<!-- index.js&#45;&gt;js/cropper.js -->
<g id="edge1" class="edge"><title>index.js&#45;&gt;js/cropper.js</title>
<path fill="none" stroke="#757575" d="M64.1982,-193C72.107,-193 80.8428,-193 89.5605,-193"/>
<polygon fill="#757575" stroke="#757575" points="89.7354,-196.5 99.7354,-193 89.7353,-189.5 89.7354,-196.5"/>
</g>
<!-- js/change.js -->
<g id="node3" class="node"><title>js/change.js</title>
<path fill="none" stroke="#c6c5fe" d="M314.333,-346.5C314.333,-346.5 239.667,-346.5 239.667,-346.5 235.833,-346.5 232,-342.667 232,-338.833 232,-338.833 232,-331.167 232,-331.167 232,-327.333 235.833,-323.5 239.667,-323.5 239.667,-323.5 314.333,-323.5 314.333,-323.5 318.167,-323.5 322,-327.333 322,-331.167 322,-331.167 322,-338.833 322,-338.833 322,-342.667 318.167,-346.5 314.333,-346.5"/>
<text text-anchor="middle" x="277" y="-331.3" font-family="Arial" font-size="14.00" fill="#c6c5fe">js/change.js</text>
</g>
<!-- js/cropper.js&#45;&gt;js/change.js -->
<g id="edge4" class="edge"><title>js/cropper.js&#45;&gt;js/change.js</title>
<path fill="none" stroke="#757575" d="M152,-204.585C162.705,-228.169 189.997,-282.208 228,-314 229.984,-315.66 232.119,-317.21 234.348,-318.654"/>
<polygon fill="#757575" stroke="#757575" points="232.858,-321.832 243.285,-323.709 236.304,-315.739 232.858,-321.832"/>
</g>
<!-- js/constants.js -->
<g id="node4" class="node"><title>js/constants.js</title>
<path fill="none" stroke="#cfffac" d="M588.333,-224.5C588.333,-224.5 499.667,-224.5 499.667,-224.5 495.833,-224.5 492,-220.667 492,-216.833 492,-216.833 492,-209.167 492,-209.167 492,-205.333 495.833,-201.5 499.667,-201.5 499.667,-201.5 588.333,-201.5 588.333,-201.5 592.167,-201.5 596,-205.333 596,-209.167 596,-209.167 596,-216.833 596,-216.833 596,-220.667 592.167,-224.5 588.333,-224.5"/>
<text text-anchor="middle" x="544" y="-209.3" font-family="Arial" font-size="14.00" fill="#cfffac">js/constants.js</text>
</g>
<!-- js/cropper.js&#45;&gt;js/constants.js -->
<g id="edge5" class="edge"><title>js/cropper.js&#45;&gt;js/constants.js</title>
<path fill="none" stroke="#757575" d="M148.607,-204.324C153.664,-235.16 172.363,-320.615 228,-355 315.65,-409.17 370.019,-369.782 456,-313 488.235,-291.712 515.605,-255.343 530.628,-232.825"/>
<polygon fill="#757575" stroke="#757575" points="533.601,-234.674 536.115,-224.382 527.731,-230.86 533.601,-234.674"/>
</g>
<!-- js/utilities.js -->
<g id="node5" class="node"><title>js/utilities.js</title>
<path fill="none" stroke="#c6c5fe" d="M444.833,-224.5C444.833,-224.5 373.167,-224.5 373.167,-224.5 369.333,-224.5 365.5,-220.667 365.5,-216.833 365.5,-216.833 365.5,-209.167 365.5,-209.167 365.5,-205.333 369.333,-201.5 373.167,-201.5 373.167,-201.5 444.833,-201.5 444.833,-201.5 448.667,-201.5 452.5,-205.333 452.5,-209.167 452.5,-209.167 452.5,-216.833 452.5,-216.833 452.5,-220.667 448.667,-224.5 444.833,-224.5"/>
<text text-anchor="middle" x="409" y="-209.3" font-family="Arial" font-size="14.00" fill="#c6c5fe">js/utilities.js</text>
</g>
<!-- js/cropper.js&#45;&gt;js/utilities.js -->
<g id="edge13" class="edge"><title>js/cropper.js&#45;&gt;js/utilities.js</title>
<path fill="none" stroke="#757575" d="M192.165,-196.461C237.429,-199.929 307.083,-205.267 354.952,-208.935"/>
<polygon fill="#757575" stroke="#757575" points="354.88,-212.44 365.119,-209.714 355.415,-205.46 354.88,-212.44"/>
</g>
<!-- js/defaults.js -->
<g id="node6" class="node"><title>js/defaults.js</title>
<path fill="none" stroke="#c6c5fe" d="M448.333,-63.5C448.333,-63.5 369.667,-63.5 369.667,-63.5 365.833,-63.5 362,-59.6667 362,-55.8333 362,-55.8333 362,-48.1667 362,-48.1667 362,-44.3333 365.833,-40.5 369.667,-40.5 369.667,-40.5 448.333,-40.5 448.333,-40.5 452.167,-40.5 456,-44.3333 456,-48.1667 456,-48.1667 456,-55.8333 456,-55.8333 456,-59.6667 452.167,-63.5 448.333,-63.5"/>
<text text-anchor="middle" x="409" y="-48.3" font-family="Arial" font-size="14.00" fill="#c6c5fe">js/defaults.js</text>
</g>
<!-- js/cropper.js&#45;&gt;js/defaults.js -->
<g id="edge6" class="edge"><title>js/cropper.js&#45;&gt;js/defaults.js</title>
<path fill="none" stroke="#757575" d="M150.651,-181.718C159.419,-156.654 184.246,-96.4692 228,-70 264.843,-47.7115 313.854,-44.1344 351.431,-45.6191"/>
<polygon fill="#757575" stroke="#757575" points="351.536,-49.1294 361.706,-46.1608 351.904,-42.1392 351.536,-49.1294"/>
</g>
<!-- js/events.js -->
<g id="node7" class="node"><title>js/events.js</title>
<path fill="none" stroke="#c6c5fe" d="M312.333,-305.5C312.333,-305.5 241.667,-305.5 241.667,-305.5 237.833,-305.5 234,-301.667 234,-297.833 234,-297.833 234,-290.167 234,-290.167 234,-286.333 237.833,-282.5 241.667,-282.5 241.667,-282.5 312.333,-282.5 312.333,-282.5 316.167,-282.5 320,-286.333 320,-290.167 320,-290.167 320,-297.833 320,-297.833 320,-301.667 316.167,-305.5 312.333,-305.5"/>
<text text-anchor="middle" x="277" y="-290.3" font-family="Arial" font-size="14.00" fill="#c6c5fe">js/events.js</text>
</g>
<!-- js/cropper.js&#45;&gt;js/events.js -->
<g id="edge7" class="edge"><title>js/cropper.js&#45;&gt;js/events.js</title>
<path fill="none" stroke="#757575" d="M156.159,-204.407C170.159,-221.245 198.389,-252.924 228,-273 230.71,-274.838 233.608,-276.574 236.586,-278.2"/>
<polygon fill="#757575" stroke="#757575" points="235.147,-281.394 245.656,-282.745 238.283,-275.136 235.147,-281.394"/>
</g>
<!-- js/handlers.js -->
<g id="node8" class="node"><title>js/handlers.js</title>
<path fill="none" stroke="#c6c5fe" d="M318.333,-264.5C318.333,-264.5 235.667,-264.5 235.667,-264.5 231.833,-264.5 228,-260.667 228,-256.833 228,-256.833 228,-249.167 228,-249.167 228,-245.333 231.833,-241.5 235.667,-241.5 235.667,-241.5 318.333,-241.5 318.333,-241.5 322.167,-241.5 326,-245.333 326,-249.167 326,-249.167 326,-256.833 326,-256.833 326,-260.667 322.167,-264.5 318.333,-264.5"/>
<text text-anchor="middle" x="277" y="-249.3" font-family="Arial" font-size="14.00" fill="#c6c5fe">js/handlers.js</text>
</g>
<!-- js/cropper.js&#45;&gt;js/handlers.js -->
<g id="edge8" class="edge"><title>js/cropper.js&#45;&gt;js/handlers.js</title>
<path fill="none" stroke="#757575" d="M171.264,-204.286C191.316,-213.612 220.008,-226.957 242.292,-237.322"/>
<polygon fill="#757575" stroke="#757575" points="240.863,-240.517 251.406,-241.561 243.815,-234.17 240.863,-240.517"/>
</g>
<!-- js/methods.js -->
<g id="node9" class="node"><title>js/methods.js</title>
<path fill="none" stroke="#c6c5fe" d="M318.333,-184.5C318.333,-184.5 235.667,-184.5 235.667,-184.5 231.833,-184.5 228,-180.667 228,-176.833 228,-176.833 228,-169.167 228,-169.167 228,-165.333 231.833,-161.5 235.667,-161.5 235.667,-161.5 318.333,-161.5 318.333,-161.5 322.167,-161.5 326,-165.333 326,-169.167 326,-169.167 326,-176.833 326,-176.833 326,-180.667 322.167,-184.5 318.333,-184.5"/>
<text text-anchor="middle" x="277" y="-169.3" font-family="Arial" font-size="14.00" fill="#c6c5fe">js/methods.js</text>
</g>
<!-- js/cropper.js&#45;&gt;js/methods.js -->
<g id="edge9" class="edge"><title>js/cropper.js&#45;&gt;js/methods.js</title>
<path fill="none" stroke="#757575" d="M192.118,-186.005C200.369,-184.726 209.086,-183.374 217.658,-182.045"/>
<polygon fill="#757575" stroke="#757575" points="218.27,-185.492 227.615,-180.501 217.197,-178.575 218.27,-185.492"/>
</g>
<!-- js/preview.js -->
<g id="node10" class="node"><title>js/preview.js</title>
<path fill="none" stroke="#c6c5fe" d="M315.833,-143.5C315.833,-143.5 238.167,-143.5 238.167,-143.5 234.333,-143.5 230.5,-139.667 230.5,-135.833 230.5,-135.833 230.5,-128.167 230.5,-128.167 230.5,-124.333 234.333,-120.5 238.167,-120.5 238.167,-120.5 315.833,-120.5 315.833,-120.5 319.667,-120.5 323.5,-124.333 323.5,-128.167 323.5,-128.167 323.5,-135.833 323.5,-135.833 323.5,-139.667 319.667,-143.5 315.833,-143.5"/>
<text text-anchor="middle" x="277" y="-128.3" font-family="Arial" font-size="14.00" fill="#c6c5fe">js/preview.js</text>
</g>
<!-- js/cropper.js&#45;&gt;js/preview.js -->
<g id="edge10" class="edge"><title>js/cropper.js&#45;&gt;js/preview.js</title>
<path fill="none" stroke="#757575" d="M168.448,-181.599C184.654,-173.118 207.529,-161.43 228,-152 231.398,-150.435 234.953,-148.852 238.526,-147.299"/>
<polygon fill="#757575" stroke="#757575" points="240.104,-150.431 247.929,-143.288 237.358,-143.993 240.104,-150.431"/>
</g>
<!-- js/render.js -->
<g id="node11" class="node"><title>js/render.js</title>
<path fill="none" stroke="#c6c5fe" d="M311.833,-102.5C311.833,-102.5 242.167,-102.5 242.167,-102.5 238.333,-102.5 234.5,-98.6667 234.5,-94.8333 234.5,-94.8333 234.5,-87.1667 234.5,-87.1667 234.5,-83.3333 238.333,-79.5 242.167,-79.5 242.167,-79.5 311.833,-79.5 311.833,-79.5 315.667,-79.5 319.5,-83.3333 319.5,-87.1667 319.5,-87.1667 319.5,-94.8333 319.5,-94.8333 319.5,-98.6667 315.667,-102.5 311.833,-102.5"/>
<text text-anchor="middle" x="277" y="-87.3" font-family="Arial" font-size="14.00" fill="#c6c5fe">js/render.js</text>
</g>
<!-- js/cropper.js&#45;&gt;js/render.js -->
<g id="edge11" class="edge"><title>js/cropper.js&#45;&gt;js/render.js</title>
<path fill="none" stroke="#757575" d="M155.822,-181.509C169.602,-164.215 197.802,-131.358 228,-111 230.129,-109.565 232.377,-108.202 234.691,-106.913"/>
<polygon fill="#757575" stroke="#757575" points="236.479,-109.931 243.838,-102.309 233.332,-103.679 236.479,-109.931"/>
</g>
<!-- js/template.js -->
<g id="node12" class="node"><title>js/template.js</title>
<path fill="none" stroke="#cfffac" d="M318.333,-22.5C318.333,-22.5 235.667,-22.5 235.667,-22.5 231.833,-22.5 228,-18.6667 228,-14.8333 228,-14.8333 228,-7.16667 228,-7.16667 228,-3.33333 231.833,0.5 235.667,0.5 235.667,0.5 318.333,0.5 318.333,0.5 322.167,0.5 326,-3.33333 326,-7.16667 326,-7.16667 326,-14.8333 326,-14.8333 326,-18.6667 322.167,-22.5 318.333,-22.5"/>
<text text-anchor="middle" x="277" y="-7.3" font-family="Arial" font-size="14.00" fill="#cfffac">js/template.js</text>
</g>
<!-- js/cropper.js&#45;&gt;js/template.js -->
<g id="edge12" class="edge"><title>js/cropper.js&#45;&gt;js/template.js</title>
<path fill="none" stroke="#757575" d="M150.395,-181.391C159.089,-153.389 184.581,-81.1861 228,-37 231.431,-33.5081 235.432,-30.3668 239.633,-27.5767"/>
<polygon fill="#757575" stroke="#757575" points="241.619,-30.468 248.419,-22.3434 238.036,-24.4541 241.619,-30.468"/>
</g>
<!-- js/change.js&#45;&gt;js/constants.js -->
<g id="edge2" class="edge"><title>js/change.js&#45;&gt;js/constants.js</title>
<path fill="none" stroke="#757575" d="M322.17,-326.375C359.288,-318.027 413.011,-303.325 456,-281 481.586,-267.713 507.135,-246.569 523.861,-231.386"/>
<polygon fill="#757575" stroke="#757575" points="526.367,-233.835 531.324,-224.471 521.61,-228.7 526.367,-233.835"/>
</g>
<!-- js/change.js&#45;&gt;js/utilities.js -->
<g id="edge3" class="edge"><title>js/change.js&#45;&gt;js/utilities.js</title>
<path fill="none" stroke="#757575" d="M309.676,-323.719C315.385,-320.984 321.078,-317.746 326,-314 355.878,-291.257 381.532,-255.457 395.848,-233.151"/>
<polygon fill="#757575" stroke="#757575" points="398.927,-234.828 401.268,-224.495 392.995,-231.113 398.927,-234.828"/>
</g>
<!-- js/utilities.js&#45;&gt;js/constants.js -->
<g id="edge25" class="edge"><title>js/utilities.js&#45;&gt;js/constants.js</title>
<path fill="none" stroke="#757575" d="M452.814,-213C462.057,-213 472.002,-213 481.794,-213"/>
<polygon fill="#757575" stroke="#757575" points="481.906,-216.5 491.906,-213 481.906,-209.5 481.906,-216.5"/>
</g>
<!-- js/defaults.js&#45;&gt;js/constants.js -->
<g id="edge14" class="edge"><title>js/defaults.js&#45;&gt;js/constants.js</title>
<path fill="none" stroke="#757575" d="M433.915,-63.2585C441.499,-67.5247 449.574,-72.8573 456,-79 491.536,-112.969 519.567,-164.13 533.452,-192.397"/>
<polygon fill="#757575" stroke="#757575" points="530.435,-194.199 537.916,-201.701 536.746,-191.171 530.435,-194.199"/>
</g>
<!-- js/events.js&#45;&gt;js/constants.js -->
<g id="edge15" class="edge"><title>js/events.js&#45;&gt;js/constants.js</title>
<path fill="none" stroke="#757575" d="M320.078,-287.235C356.608,-280.73 410.615,-269.582 456,-254 475.67,-247.247 496.795,-237.359 513.302,-228.986"/>
<polygon fill="#757575" stroke="#757575" points="515.162,-231.965 522.441,-224.266 511.95,-225.745 515.162,-231.965"/>
</g>
<!-- js/events.js&#45;&gt;js/utilities.js -->
<g id="edge16" class="edge"><title>js/events.js&#45;&gt;js/utilities.js</title>
<path fill="none" stroke="#757575" d="M306.68,-282.679C313.168,-279.784 319.929,-276.493 326,-273 347.545,-260.605 370.215,-243.678 386.245,-230.962"/>
<polygon fill="#757575" stroke="#757575" points="388.82,-233.382 394.417,-224.387 384.432,-227.928 388.82,-233.382"/>
</g>
<!-- js/handlers.js&#45;&gt;js/constants.js -->
<g id="edge17" class="edge"><title>js/handlers.js&#45;&gt;js/constants.js</title>
<path fill="none" stroke="#757575" d="M326.182,-249.085C362.113,-245.803 412.317,-240.45 456,-233 466.536,-231.203 477.708,-228.923 488.41,-226.551"/>
<polygon fill="#757575" stroke="#757575" points="489.514,-229.889 498.49,-224.26 487.963,-223.063 489.514,-229.889"/>
</g>
<!-- js/handlers.js&#45;&gt;js/utilities.js -->
<g id="edge18" class="edge"><title>js/handlers.js&#45;&gt;js/utilities.js</title>
<path fill="none" stroke="#757575" d="M314.905,-241.645C329.314,-237.211 346.004,-232.076 361.24,-227.388"/>
<polygon fill="#757575" stroke="#757575" points="362.474,-230.67 371.003,-224.384 360.416,-223.979 362.474,-230.67"/>
</g>
<!-- js/methods.js&#45;&gt;js/constants.js -->
<g id="edge19" class="edge"><title>js/methods.js&#45;&gt;js/constants.js</title>
<path fill="none" stroke="#757575" d="M326.209,-176.433C362.154,-179.407 412.364,-184.438 456,-192 467.486,-193.99 479.712,-196.618 491.257,-199.338"/>
<polygon fill="#757575" stroke="#757575" points="490.65,-202.792 501.192,-201.738 492.294,-195.988 490.65,-202.792"/>
</g>
<!-- js/methods.js&#45;&gt;js/utilities.js -->
<g id="edge20" class="edge"><title>js/methods.js&#45;&gt;js/utilities.js</title>
<path fill="none" stroke="#757575" d="M314.905,-184.355C329.314,-188.789 346.004,-193.924 361.24,-198.612"/>
<polygon fill="#757575" stroke="#757575" points="360.416,-202.021 371.003,-201.616 362.474,-195.33 360.416,-202.021"/>
</g>
<!-- js/preview.js&#45;&gt;js/constants.js -->
<g id="edge21" class="edge"><title>js/preview.js&#45;&gt;js/constants.js</title>
<path fill="none" stroke="#757575" d="M323.56,-141.158C359.865,-148.957 411.765,-161.232 456,-176 474.179,-182.069 493.874,-190.299 509.92,-197.457"/>
<polygon fill="#757575" stroke="#757575" points="508.84,-200.81 519.394,-201.745 511.727,-194.433 508.84,-200.81"/>
</g>
<!-- js/preview.js&#45;&gt;js/utilities.js -->
<g id="edge22" class="edge"><title>js/preview.js&#45;&gt;js/utilities.js</title>
<path fill="none" stroke="#757575" d="M308.243,-143.273C314.255,-145.881 320.429,-148.831 326,-152 347.862,-164.436 370.654,-181.802 386.644,-194.826"/>
<polygon fill="#757575" stroke="#757575" points="384.842,-197.878 394.778,-201.556 389.304,-192.485 384.842,-197.878"/>
</g>
<!-- js/render.js&#45;&gt;js/constants.js -->
<g id="edge23" class="edge"><title>js/render.js&#45;&gt;js/constants.js</title>
<path fill="none" stroke="#757575" d="M319.509,-99.7654C356.625,-108.587 411.821,-124.174 456,-147 481.186,-160.013 506.632,-180.342 523.441,-195"/>
<polygon fill="#757575" stroke="#757575" points="521.161,-197.656 530.961,-201.684 525.812,-192.424 521.161,-197.656"/>
</g>
<!-- js/render.js&#45;&gt;js/utilities.js -->
<g id="edge24" class="edge"><title>js/render.js&#45;&gt;js/utilities.js</title>
<path fill="none" stroke="#757575" d="M311.207,-102.257C316.402,-104.732 321.525,-107.638 326,-111 356.362,-133.806 382.029,-170.306 396.191,-192.901"/>
<polygon fill="#757575" stroke="#757575" points="393.337,-194.943 401.536,-201.653 399.311,-191.294 393.337,-194.943"/>
</g>
</g>
</svg>
