<?xml version="1.0" encoding="UTF-8" standalone="no"?>
<!DOCTYPE svg PUBLIC "-//W3C//DTD SVG 1.1//EN"
 "http://www.w3.org/Graphics/SVG/1.1/DTD/svg11.dtd">
<!-- Generated by graphviz version 2.40.1 (20161225.0304)
 -->
<!-- Title: %0 Pages: 1 -->
<svg width="93pt" height="54pt"
 viewBox="0.00 0.00 92.55 54.40" xmlns="http://www.w3.org/2000/svg" xmlns:xlink="http://www.w3.org/1999/xlink">
<g id="graph0" class="graph" transform="scale(1 1) rotate(0) translate(4 50.4)">
<title>%0</title>
<polygon fill="#ffffff" stroke="transparent" points="-4,4 -4,-50.4 88.5543,-50.4 88.5543,4 -4,4"/>
<text text-anchor="middle" x="42.2772" y="-28" font-family="Roboto Condensed, sans-serif" font-size="16.00" fill="#000000">cropperjs</text>
<!-- cropperjs@1.5.11 -->
<g id="node1" class="node">
<title>cropperjs@1.5.11</title>
<path fill="none" stroke="#000000" d="M77.8653,-19.3011C77.8653,-19.3011 6.689,-19.3011 6.689,-19.3011 3.4554,-19.3011 .2217,-16.0674 .2217,-12.8337 .2217,-12.8337 .2217,-6.3663 .2217,-6.3663 .2217,-3.1326 3.4554,.1011 6.689,.1011 6.689,.1011 77.8653,.1011 77.8653,.1011 81.0989,.1011 84.3326,-3.1326 84.3326,-6.3663 84.3326,-6.3663 84.3326,-12.8337 84.3326,-12.8337 84.3326,-16.0674 81.0989,-19.3011 77.8653,-19.3011"/>
<text text-anchor="middle" x="42.2772" y="-6.3" font-family="Roboto Condensed, sans-serif" font-size="11.00" fill="#000000">cropperjs@1.5.11</text>
</g>
</g>
</svg>
